<svg width="690" height="726" viewBox="0 0 690 726" fill="none" xmlns="http://www.w3.org/2000/svg">
<g filter="url(#filter0_d_888_263)">
<path fill-rule="evenodd" clip-rule="evenodd" d="M53.3421 302.66C53.2458 302.755 53.1497 302.85 53.0538 302.946C17.1256 338.874 28.6809 408.681 78.8632 458.863C129.046 509.046 198.852 520.601 234.78 484.673L234.872 484.581C234.913 484.539 234.955 484.498 234.996 484.456C235.02 484.433 235.044 484.409 235.068 484.385L245.223 474.23L234.043 462.782L223.754 473.071L223.753 473.07C223.658 473.167 223.562 473.263 223.467 473.359C210.093 486.733 189.376 492.346 164.78 488.274C140.219 484.208 113.176 470.549 90.1769 447.549C67.1777 424.55 53.518 397.508 49.4523 372.946C45.42 348.587 50.8864 328.033 63.9829 314.649C64.2303 314.454 64.4687 314.242 64.6969 314.014L293.512 85.1992L293.826 85.5131C322.443 57.1441 340.953 49.241 352.951 48.6677C364.204 48.13 374.061 53.8754 386.529 66.3442C398.998 78.813 404.744 88.6692 404.206 99.9223C403.633 111.921 395.729 130.431 367.361 159.048L367.384 159.071L316.433 210.022L338.789 210.294L381.37 167.712C381.661 167.422 381.924 167.115 382.16 166.794C436.911 109.895 423.712 80.8991 397.843 55.0305C372.16 29.3469 343.393 16.1523 287.296 69.5491C286.416 69.9373 285.592 70.4919 284.871 71.2128L53.3832 302.701L53.3421 302.66ZM444.724 252.101L455.904 263.549L466.555 252.897L466.556 252.897C479.948 239.505 500.682 233.883 525.285 237.946C549.854 242.004 576.9 255.657 599.897 278.655C622.894 301.652 636.548 328.698 640.606 353.267C644.604 377.478 639.223 397.943 626.288 411.351C626.055 411.537 625.829 411.739 625.613 411.955L394.125 643.443C393.896 643.672 393.683 643.912 393.487 644.162C367.88 669.586 350.128 676.864 338.032 677.303C326.389 677.726 315.713 671.936 303.591 659.814C291.484 647.707 285.821 637.14 286.308 625.611C286.821 613.465 294.315 595.568 320.274 569.592L320.253 569.571L373.919 515.905L351.563 515.634L308.94 558.257C308.773 558.424 308.614 558.597 308.465 558.775C254.972 612.563 265.619 644.47 292.277 671.128C319.028 697.878 351.352 708.926 405.48 654.798L405.439 654.756L636.927 423.268L636.969 423.31C672.925 387.353 661.393 317.523 611.211 267.341C561.041 217.171 491.233 205.632 455.268 241.557L455.242 241.584L444.724 252.101ZM493.89 375.216L494.133 395.691L501.103 388.721C504.227 385.597 504.227 380.531 501.103 377.407C499.143 375.447 496.42 374.717 493.89 375.216ZM195.654 350.866L195.419 331.036L189.207 337.248C186.083 340.372 186.083 345.438 189.207 348.562C190.97 350.325 193.352 351.093 195.654 350.866Z" fill="#F4BF1F"/>
</g>
<g clip-path="url(#clip0_888_263)">
<path d="M478.785 304.915V422.877L400.72 501H349.376V416.722H401.775V442.408H415.504V402.386H349.376V328.306H415.504V283.497H401.775V312.169H349.376V225H398.929L401.775 227.848L478.785 304.915Z" fill="#E8B50D"/>
<path d="M341.547 225V265.022H316.062L298.924 282.354L291.995 289.358L256.172 325.571V345.941L291.995 309.719L319.072 282.354H341.547V501H289.59L256.172 467.557L239.804 451.169L256.172 434.625L275.143 415.45L291.995 432.314V378.691L265.342 405.641L256.172 414.913L230.003 441.369L212 423.345V303.4L232.823 282.354L249.96 265.022L256.172 258.737L289.547 225H341.547Z" fill="#4D2DB7"/>
</g>
<defs>
<filter id="filter0_d_888_263" x="0.158203" y="0.632568" width="689.736" height="724.693" filterUnits="userSpaceOnUse" color-interpolation-filters="sRGB">
<feFlood flood-opacity="0" result="BackgroundImageFix"/>
<feColorMatrix in="SourceAlpha" type="matrix" values="0 0 0 0 0 0 0 0 0 0 0 0 0 0 0 0 0 0 127 0" result="hardAlpha"/>
<feOffset/>
<feGaussianBlur stdDeviation="16"/>
<feComposite in2="hardAlpha" operator="out"/>
<feColorMatrix type="matrix" values="0 0 0 0 0.196078 0 0 0 0 0 0 0 0 0 0.6 0 0 0 1 0"/>
<feBlend mode="normal" in2="BackgroundImageFix" result="effect1_dropShadow_888_263"/>
<feBlend mode="normal" in="SourceGraphic" in2="effect1_dropShadow_888_263" result="shape"/>
</filter>
<clipPath id="clip0_888_263">
<rect width="266.785" height="276" fill="white" transform="translate(212 225)"/>
</clipPath>
</defs>
</svg>
